# xmcd
#
# Track frame offsets:
#	150
#	23355
#	58492
#	93110
#	132522
#	168355
#	200509
#	219327
#	237227
#	266955
#	299937
#
# Disc length: 4219 seconds
#
# Revision: 0
# Processed by: cddbd v1.5PL3 Copyright (c) Steve Scherf et al.
# Submitted via: EasyCDDAExtractor 5.0.5.1
#
DISCID=aa10790b
DTITLE=Ayreon - The Dream Sequencer
DYEAR=1900
DGENRE=Rock
TTITLE0=The Dream Sequencer
TTITLE1=My House On Mars
TTITLE2=2084
TTITLE3=One Small Step
TTITLE4=The Shooting Company Of Captain Frans B. Coco
TTITLE5=Dragon On The Sea
TTITLE6=Temple Of The Cat
TTITLE7=Carried By The Wind
TTITLE8=And The Druids Turn To Stone
TTITLE9=The First Man On Earth
TTITLE10=The Dream Sequencer Reprise
EXTD=
EXTT0=
EXTT1=
EXTT2=
EXTT3=
EXTT4=
EXTT5=
EXTT6=
EXTT7=
EXTT8=
EXTT9=
EXTT10=
PLAYORDER=
